ffmpeg version 3.4.8-0ubuntu0.2 Copyright (c) 2000-2020 the FFmpeg developers
  built with gcc 7 (Ubuntu 7.5.0-3ubuntu1~18.04)
  configuration: --prefix=/usr --extra-version=0ubuntu0.2 --toolchain=hardened --libdir=/usr/lib/x86_64-linux-gnu --incdir=/usr/include/x86_64-linux-gnu --enable-gpl --disable-stripping --enable-avresample --enable-avisynth --enable-gnutls --enable-ladspa --enable-libass --enable-libbluray --enable-libbs2b --enable-libcaca --enable-libcdio --enable-libflite --enable-libfontconfig --enable-libfreetype --enable-libfribidi --enable-libgme --enable-libgsm --enable-libmp3lame --enable-libmysofa --enable-libopenjpeg --enable-libopenmpt --enable-libopus --enable-libpulse --enable-librubberband --enable-librsvg --enable-libshine --enable-libsnappy --enable-libsoxr --enable-libspeex --enable-libssh --enable-libtheora --enable-libtwolame --enable-libvorbis --enable-libvpx --enable-libwavpack --enable-libwebp --enable-libx265 --enable-libxml2 --enable-libxvid --enable-libzmq --enable-libzvbi --enable-omx --enable-openal --enable-opengl --enable-sdl2 --enable-libdc1394 --enable-libdrm --enable-libiec61883 --enable-chromaprint --enable-frei0r --enable-libopencv --enable-libx264 --enable-shared
  libavutil      55. 78.100 / 55. 78.100
  libavcodec     57.107.100 / 57.107.100
  libavformat    57. 83.100 / 57. 83.100
  libavdevice    57. 10.100 / 57. 10.100
  libavfilter     6.107.100 /  6.107.100
  libavresample   3.  7.  0 /  3.  7.  0
  libswscale      4.  8.100 /  4.  8.100
  libswresample   2.  9.100 /  2.  9.100
  libpostproc    54.  7.100 / 54.  7.100
[rawvideo @ 0x55576d8fda20] Estimating duration from bitrate, this may be inaccurate
Input #0, rawvideo, from '../../SVC-Encoder-20220109T061506Z-001/SVC-Encoder/Dataset/RollerCoaster/ERP_8x8/tile_yuv/Tile_58_480x240.yuv':
  Duration: 00:00:10.00, start: 0.000000, bitrate: 41472 kb/s
    Stream #0:0: Video: rawvideo (I420 / 0x30323449), yuv420p, 480x240, 41472 kb/s, 30 tbr, 30 tbn, 30 tbc
Stream mapping:
  Stream #0:0 -> #0:0 (rawvideo (native) -> h264 (libx264))
Press [q] to stop, [?] for help
[libx264 @ 0x55576d90ac60] using cpu capabilities: MMX2 SSE2Fast LZCNT SSSE3 SSE4.2 AVX
[libx264 @ 0x55576d90ac60] profile High, level 2.1
Output #0, rawvideo, to 'RollerCoaster_Tile_58_480x240_x264_QP_24.h264':
  Metadata:
    encoder         : Lavf57.83.100
    Stream #0:0: Video: h264 (libx264), yuv420p, 480x240, q=-1--1, 30 fps, 30 tbn, 30 tbc
    Metadata:
      encoder         : Lavc57.107.100 libx264
    Side data:
      cpb: bitrate max/min/avg: 0/0/0 buffer size: 0 vbv_delay: -1
frame=  190 fps=0.0 q=30.0 PSNR=Y:nan U:nan V:nan *:nan size=      63kB time=00:00:04.90 bitrate= 104.9kbits/s speed=9.79x    frame=  300 fps=0.0 q=30.0 LPSNR=Y:inf U:inf V:inf *:inf size=     120kB time=00:00:09.93 bitrate=  99.1kbits/s speed=11.2x    
video:120kB audio:0kB subtitle:0kB other streams:0kB global headers:0kB muxing overhead: 0.000000%
[libx264 @ 0x55576d90ac60] frame I:2     Avg QP:22.20  size:  7448  PSNR Mean Y:48.14 U:51.48 V:47.21 Avg:48.36 Global:48.30
[libx264 @ 0x55576d90ac60] frame P:77    Avg QP:22.75  size:   863  PSNR Mean Y:47.03 U:50.51 V:47.01 Avg:47.44 Global:47.39
[libx264 @ 0x55576d90ac60] frame B:221   Avg QP:29.42  size:   188  PSNR Mean Y:46.83 U:50.44 V:46.93 Avg:47.27 Global:47.20
[libx264 @ 0x55576d90ac60] consecutive B-frames:  0.7%  2.7%  2.0% 94.7%
[libx264 @ 0x55576d90ac60] mb I  I16..4: 37.6% 18.8% 43.7%
[libx264 @ 0x55576d90ac60] mb P  I16..4:  3.2%  0.5%  0.2%  P16..4: 37.6%  9.1%  2.0%  0.0%  0.0%    skip:47.3%
[libx264 @ 0x55576d90ac60] mb B  I16..4:  0.2%  0.0%  0.0%  B16..8: 29.3%  1.5%  0.0%  direct: 0.0%  skip:68.9%  L0:47.6% L1:51.3% BI: 1.1%
[libx264 @ 0x55576d90ac60] 8x8 transform intra:14.3% inter:77.1%
[libx264 @ 0x55576d90ac60] coded y,uvDC,uvAC intra: 19.5% 40.5% 20.1% inter: 3.1% 4.2% 0.1%
[libx264 @ 0x55576d90ac60] i16 v,h,dc,p: 19% 63% 14%  4%
[libx264 @ 0x55576d90ac60] i8 v,h,dc,ddl,ddr,vr,hd,vl,hu:  8% 23% 60%  1%  1%  0%  2%  1%  3%
[libx264 @ 0x55576d90ac60] i4 v,h,dc,ddl,ddr,vr,hd,vl,hu:  6% 69% 14%  1%  2%  1%  3%  0%  3%
[libx264 @ 0x55576d90ac60] i8c dc,h,v,p: 36% 56%  7%  1%
[libx264 @ 0x55576d90ac60] Weighted P-Frames: Y:1.3% UV:0.0%
[libx264 @ 0x55576d90ac60] ref P L0: 55.8%  8.5% 27.9%  7.7%  0.0%
[libx264 @ 0x55576d90ac60] ref B L0: 70.5% 23.9%  5.6%
[libx264 @ 0x55576d90ac60] ref B L1: 87.6% 12.4%
[libx264 @ 0x55576d90ac60] PSNR Mean Y:46.891 U:50.465 V:46.955 Avg:47.320 Global:47.256 kb/s:98.41
